# xmcd
#
# Track frame offsets: 
#        150
#        26395
#        46977
#        68582
#        92197
#        115095
#        130030
#        152662
#        170327
#        193385
#
# Disc length: 2916 seconds
#
# Revision: 0
# Processed by: cddbd v1.5.2PL0 Copyright (c) Steve Scherf et al.
# Submitted via: ExactAudioCopy v1.0b3
#
DISCID=7c0b620a
DTITLE=Thien Trang - Cho Nguoi Tinh Nho
DYEAR=1992
DGENRE=
TTITLE0=Nhung tam hon hoang lanh
TTITLE1=Cho nguoi tinh nho
TTITLE2=Chieu tren doi thong
TTITLE3=Niem dau di vang
TTITLE4=Tim mai thuong yeu
TTITLE5=Thuong doi hoa
TTITLE6=Mua dem tuong nho
TTITLE7=Nguoi qua pho
TTITLE8=Ngay buon
TTITLE9=Em cho anh tro lai
EXTD=
EXTT0=
EXTT1=
EXTT2=
EXTT3=
EXTT4=
EXTT5=
EXTT6=
EXTT7=
EXTT8=
EXTT9=
PLAYORDER=
